<!--?xml version="1.0" encoding="utf-8"?-->
<!-- Generator: Adobe Illustrator 18.1.1, SVG Export Plug-In . SVG Version: 6.00 Build 0)  -->

<svg version="1.1" id="_x32_" xmlns="http://www.w3.org/2000/svg" xmlns:xlink="http://www.w3.org/1999/xlink" x="0px" y="0px" viewBox="0 0 512 512" style="width: 256px; height: 256px; opacity: 1;" xml:space="preserve">
<style type="text/css">
	.st0{fill:#4B4B4B;}
</style>
<g>
	<path class="st0" d="M448.115,240.956c-39.306-39.389-94.166-63.913-154.235-63.885h-51.026V86.142
		c0-8.058-4.506-15.439-11.674-19.125c-7.172-3.677-15.8-3.047-22.352,1.64L8.983,211.746C3.343,215.784,0,222.295,0,229.232
		s3.343,13.448,8.983,17.486l199.844,143.088c6.552,4.687,15.18,5.316,22.352,1.64c7.169-3.686,11.674-11.068,11.674-19.125v-90.929
		h51.026c31.59,0.019,59.708,12.651,80.467,33.331c20.676,20.755,33.305,48.882,33.332,80.473c0,28.803,23.353,52.16,52.16,52.16
		S512,424,512,395.196C512.028,335.127,487.508,280.271,448.115,240.956z" style="fill: rgb(75, 75, 75);"></path>
</g>
</svg>
