<!--?xml version="1.0" encoding="utf-8"?-->
<!-- Generator: Adobe Illustrator 18.1.1, SVG Export Plug-In . SVG Version: 6.00 Build 0)  -->

<svg version="1.1" id="_x32_" xmlns="http://www.w3.org/2000/svg" xmlns:xlink="http://www.w3.org/1999/xlink" x="0px" y="0px" viewBox="0 0 512 512" style="width: 256px; height: 256px; opacity: 1;" xml:space="preserve">
<style type="text/css">
	.st0{fill:#4B4B4B;}
</style>
<g>
	<path class="st0" d="M507.916,224.325c-1.17-6.277-2.585-12.514-4.269-18.671c-9.96-36.459-29.802-69.7-58.331-94.632
		c-28.822-25.193-64.672-40.908-101.714-49.556c-79.944-18.656-168.703-3.771-236.607,42.988
		c-15.36,10.576-29.605,22.861-41.897,36.901c-1.423,1.612-2.815,3.256-4.174,4.917c-0.997,1.218-0.854,2.04-2.301,0.925
		c-0.972-0.743-1.945-1.478-2.941-2.182c-4.213-3.004-8.727-5.62-13.526-7.557c-9.115-3.676-19.754-4.735-28.861-0.592
		c-21.708,9.897-12.719,36.466-1.992,51.114c2.838,3.889,6.023,7.533,9.486,10.877c1.708,1.652,3.494,3.241,5.352,4.743
		c0.933,0.743,1.873,1.471,2.838,2.166c1.557,1.138,0.403,2.704-0.056,4.419c-2.767,10.475-4.766,21.138-6.134,31.881
		c-5.336,41.684-2.458,85.241,7.628,126.015c2.396,9.652,5.242,19.225,8.996,28.434c3.123,7.652,6.894,16.19,13.051,21.929
		c14.229,13.249,40.221,11.051,52.158-4.459c6.348-8.237,3.913-16.632,0.751-25.525c-2.989-8.388-4.135-17.098-4.143-25.984
		c0-17.691,1.636-38.624,14.095-52.308c6.846-7.518,16.268-12.403,26.181-14.388c4.435-0.893,9.068-1.272,13.565-0.704
		c2.221,0.285,3.202,0.348,4.118,2.467c0.854,1.921,1.558,3.905,2.221,5.89c6.49,19.36,9.976,39.881,13.582,59.92
		c3.588,19.992,6.735,40.063,9.644,60.166c0.213,1.462,4.166,34.734,4.727,34.734c16.285,0,32.561,0,48.846,0
		c9.438,0,18.878,0,28.316,0c1.976,0,3.944,0,5.92,0c0.49,0,0.783-8.94,0.854-9.96c2.292-34.245,5.13-68.751,10.948-102.593
		c0.814-4.742,1.708-9.485,2.83-14.166c0.909-3.762,1.249-7.304,4.728-9.422c8.055-4.902,18.482-6.388,27.683-7.383
		c10.641-1.154,21.454-1.194,32.11-0.096c9.312,0.957,19.304,2.546,27.66,7.012c3.392,1.81,5.154,3.628,6.119,7.296
		c1.226,4.648,1.834,9.455,2.261,14.229c0.917,10.301,0.901,20.68,0.601,31.004c-0.592,19.779-2.348,39.525-4.696,59.154
		c-0.996,8.324-2.205,16.624-3.375,24.924c16.269,0,32.538,0,48.806,0c9.075,0,18.15,0,27.217,0c1.423,0,3.06,0.229,4.459,0
		c6.902-1.122,11.762-8.474,14.909-14.007c7.392-13.036,11.779-27.81,15.763-42.166c4.371-15.732,7.912-31.684,11.099-47.691
		C510.992,311.344,515.995,267.89,507.916,224.325z M462.43,182.413c-6.308,5.715-12.308,11.762-18.048,18.063
		c-25.477,28-46.632,60.956-59.746,96.552c-6.51-2.616-13.356-4.348-20.26-5.549c1.774,0.308,3.17,0.546-0.032-0.008
		c-4.992-0.861-2.269-0.395-0.044-0.008c-13.21-2.276-26.751-2.774-40.123-1.905c-13.177,0.846-26.782,2.901-38.948,8.261
		c-16.213-66.316-46.126-129.588-87.153-184.18c-5.028-6.696-10.237-13.257-15.652-19.653c40-13.897,83.169-18.703,125.232-13.778
		c40.221,4.711,80.972,17.842,113.335,42.774c13.968,10.766,26.205,23.723,35.992,38.403c2.435,3.652,4.719,7.399,6.854,11.233
		c1.067,1.921,2.095,3.866,3.082,5.826C465.411,179.741,463.909,181.068,462.43,182.413z" style="fill: rgb(86, 117, 254);"></path>
</g>
</svg>
